<?xml version="1.0" encoding="utf-8"?>
<!-- Generator: Adobe Illustrator 19.2.1, SVG Export Plug-In . SVG Version: 6.00 Build 0)  -->
<svg version="1.1" id="Forma_1_1_" xmlns="http://www.w3.org/2000/svg" xmlns:xlink="http://www.w3.org/1999/xlink" x="0px" y="0px"
	 viewBox="0 0 612 574" style="enable-background:new 0 0 612 574;" xml:space="preserve">
<style type="text/css">
	.st0{fill-rule:evenodd;clip-rule:evenodd;}
</style>
<g id="Forma_1">
	<g>
		<path class="st0" d="M599.9,94.1h-28.4v-4.4c0-7-5.7-12.6-12.6-12.6h-65.3c-7,0-12.6,5.7-12.6,12.6v4.4H378l-26.8-68.2l2.4-0.9
			c6.5-2.6,9.7-9.9,7.1-16.4c-2.6-6.5-9.9-9.7-16.4-7.1L196,59.8c-6.5,2.6-9.7,9.9-7.1,16.4c2,5,6.7,8,11.8,8c1.5,0,3.1-0.3,4.6-0.9
			l2.4-0.9l5.2,13.4C93.5,109.5,0.5,211.2,0.5,334.3c0,132.4,107.7,240.2,240.2,240.2c132.4,0,240.2-107.7,240.2-240.2
			c0-31.6-6-62.1-17.8-90.9h17.8v4.4c0,7,5.7,12.6,12.6,12.6h65.3c7,0,12.6-5.7,12.6-12.6v-4.4h28.4c7,0,12.6-5.7,12.6-12.6v-124
			C612.5,99.8,606.8,94.1,599.9,94.1z M327.7,35.2l23.1,58.9H240.7c-0.4,0-0.9,0-1.3,0l-8.2-21L327.7,35.2z M480.8,218.1l-240.2,0
			c-64.1,0-116.2,52.1-116.2,116.2c0,64.1,52.1,116.2,116.2,116.2c64.1,0,116.2-52.1,116.2-116.2c0-36.8-17.2-69.6-44-90.9h122.5
			c13.4,28.5,20.1,59,20.1,90.9c0,118.5-96.4,214.9-214.9,214.9S25.8,452.7,25.8,334.3c0-118.5,96.4-214.9,214.9-214.9h240.2V218.1z
			 M290.9,348.7c0.2-0.6,0.3-1.2,0.5-1.8h39.3c-1,7.5-3,14.6-5.7,21.4L290.9,348.7z M312.3,390.2c-4.6,5.8-9.8,11.1-15.7,15.7
			l-19.6-34c0.4-0.4,0.9-0.8,1.3-1.3L312.3,390.2z M291.4,321.6c-0.1-0.6-0.3-1.2-0.5-1.8l34-19.6c2.7,6.8,4.7,13.9,5.7,21.4H291.4z
			 M278.2,298c-0.4-0.4-0.8-0.9-1.3-1.3l19.6-34c5.8,4.6,11.1,9.8,15.7,15.7L278.2,298z M213.7,334.3c0-14.9,12.1-27,27-27
			c14.9,0,27,12.1,27,27c0,14.9-12.1,27-27,27C225.8,361.3,213.7,349.1,213.7,334.3z M228,385v39.3c-7.5-1-14.6-3-21.4-5.7l19.6-34
			C226.8,384.7,227.4,384.8,228,385z M206.6,250c6.8-2.7,13.9-4.7,21.4-5.7v39.3h0c-0.6,0.1-1.2,0.3-1.8,0.5L206.6,250z M253.3,385
			c0.6-0.1,1.2-0.3,1.8-0.5l19.6,34c-6.8,2.7-13.9,4.7-21.4,5.7V385z M255.1,284c-0.6-0.2-1.2-0.3-1.8-0.5v-39.3
			c7.5,1,14.6,3,21.4,5.7L255.1,284z M189.9,346.9c0.1,0.6,0.3,1.2,0.5,1.8l-34,19.6c-2.7-6.8-4.7-13.9-5.7-21.4H189.9z
			 M150.7,321.6c1-7.5,3-14.6,5.7-21.4l34,19.6c-0.2,0.6-0.3,1.2-0.5,1.8H150.7z M203.1,370.5c0.4,0.4,0.9,0.9,1.3,1.3l-19.6,34
			c-5.8-4.6-11.1-9.8-15.7-15.7L203.1,370.5z M203.1,298l-34-19.6c4.6-5.8,9.8-11.1,15.7-15.7l19.6,34
			C203.9,297.1,203.5,297.5,203.1,298z M546.1,235.1h-40V102.4h40V235.1z M587.2,218.1h-15.8v-98.7h15.8V218.1z"/>
	</g>
</g>
</svg>
