<?xml version="1.0" encoding="utf-8"?>
<!-- Generator: Adobe Illustrator 19.2.1, SVG Export Plug-In . SVG Version: 6.00 Build 0)  -->
<svg version="1.1" id="Forma_1_1_" xmlns="http://www.w3.org/2000/svg" xmlns:xlink="http://www.w3.org/1999/xlink" x="0px" y="0px"
	 viewBox="0 0 40 44" style="enable-background:new 0 0 40 44;" xml:space="preserve">
<style type="text/css">
	.st0{fill:#FFCC00;}
</style>
<g id="Forma_1">
	<g>
		<path class="st0" d="M39,25.9h-2.5c0-0.1,0-0.3,0-0.4v-1.9c0.8-0.7,1.4-1.8,1.6-3l0.6-4.5c0.2-1.4-0.3-2.7-1.2-3.7L36.1,11
			l1.3-0.2c1.1-0.1,2-1.1,2-2.2c0-1.2-1-2.2-2.2-2.2h-1.4c-0.7,0-1.4,0.4-1.8,0.9l-1.7-3.6c-0.7-1.6-2.2-2.8-4-3.2
			c-2.8-0.6-13.9-0.6-16.8,0c-1.7,0.4-3.2,1.6-4,3.2L6,7.3C5.6,6.8,4.9,6.4,4.2,6.4H2.9c-1.2,0-2.2,1-2.2,2.2c0,1.1,0.8,2.1,2,2.2
			L3.9,11l-1.4,1.4c-1,1-1.4,2.4-1.2,3.7l0.6,4.5c0.2,1.2,0.8,2.2,1.6,3v1.9c0,0.2,0,0.3,0,0.4H1c-0.6,0-1,0.5-1,1v4
			c0,0.6,0.5,1,1,1h14.2v2.9c0,0.6,0.5,1,1,1h1.1v7c0,0.6,0.5,1,1,1c0.6,0,1-0.5,1-1v-7h1.2v7c0,0.6,0.5,1,1,1c0.6,0,1-0.5,1-1v-7
			h1.1c0.6,0,1-0.5,1-1V32H39c0.6,0,1-0.5,1-1v-4C40,26.4,39.5,25.9,39,25.9z M36.3,18.8h-5.2L30.5,17h6L36.3,18.8z M34.4,25.5
			c0,0.2-0.2,0.4-0.4,0.4h-3.6c-0.2,0-0.4-0.2-0.4-0.4v-0.7h3.4c0.4,0,0.8,0,1.1-0.1L34.4,25.5L34.4,25.5z M33.3,22.8H6.7
			c-1.2,0-2.3-0.8-2.6-1.9h31.9C35.6,22,34.5,22.8,33.3,22.8z M27.9,25.9H12.1c0-0.1,0-0.3,0-0.4v-0.7h15.7v0.7
			C27.8,25.7,27.9,25.8,27.9,25.9z M10.1,24.8v0.7c0,0.2-0.2,0.4-0.4,0.4H6c-0.2,0-0.4-0.2-0.4-0.4v-0.8c0.4,0.1,0.7,0.1,1.1,0.1
			H10.1z M11.1,18.8l0.6-1.8h16.7l0.6,1.8H11.1z M35.8,8.5h1.4c0.1,0,0.2,0.1,0.2,0.2c0,0.1-0.1,0.2-0.2,0.2L35.6,9V8.6h0
			C35.6,8.6,35.7,8.5,35.8,8.5z M9.5,4.6c0.5-1,1.4-1.8,2.6-2.1c2.5-0.6,13.3-0.6,15.8,0c1.1,0.3,2.1,1,2.6,2.1l2.3,5H7.2L9.5,4.6z
			 M2.8,8.8c-0.1,0-0.2-0.1-0.2-0.2c0-0.1,0.1-0.2,0.2-0.2h1.4c0.1,0,0.2,0.1,0.2,0.2V9L2.8,8.8z M4,13.9l2.2-2.2h27.6l2.2,2.2
			c0.3,0.3,0.5,0.7,0.6,1.1H3.3C3.4,14.6,3.7,14.2,4,13.9z M3.5,17h6l-0.6,1.8H3.7L3.5,17z M22.7,33.9h-5.5V32h5.5V33.9z M37.9,29.9
			H2.1V28h35.9V29.9z M34.4,33.5c-0.2-0.3-0.5-0.5-0.9-0.5c-0.4,0-0.7,0.2-0.9,0.5l-3.9,6.8c-0.2,0.3-0.2,0.7,0,1
			c0.2,0.3,0.5,0.5,0.9,0.5h1V43c0,0.6,0.5,1,1,1c0.6,0,1-0.5,1-1v-2.2c0-0.6-0.5-1-1-1h-0.3l2.1-3.7l2.1,3.7h-0.3c-0.6,0-1,0.5-1,1
			V43c0,0.6,0.5,1,1,1c0.6,0,1-0.5,1-1v-1.2h1c0.4,0,0.7-0.2,0.9-0.5c0.2-0.3,0.2-0.7,0-1L34.4,33.5z M7.5,33.5
			c-0.2-0.3-0.5-0.5-0.9-0.5s-0.7,0.2-0.9,0.5l-3.9,6.8c-0.2,0.3-0.2,0.7,0,1c0.2,0.3,0.5,0.5,0.9,0.5h1V43c0,0.6,0.5,1,1,1
			c0.6,0,1-0.5,1-1v-2.2c0-0.6-0.5-1-1-1H4.5L6.6,36l2.1,3.7H8.5c-0.6,0-1,0.5-1,1V43c0,0.6,0.5,1,1,1c0.6,0,1-0.5,1-1v-1.2h1
			c0.4,0,0.7-0.2,0.9-0.5c0.2-0.3,0.2-0.7,0-1L7.5,33.5z"/>
	</g>
</g>
</svg>
