<?xml version="1.0" encoding="utf-8"?>
<!-- Generator: Adobe Illustrator 19.2.1, SVG Export Plug-In . SVG Version: 6.00 Build 0)  -->
<svg version="1.1" id="Forma_1_1_" xmlns="http://www.w3.org/2000/svg" xmlns:xlink="http://www.w3.org/1999/xlink" x="0px" y="0px"
	 viewBox="0 0 54 40" style="enable-background:new 0 0 54 40;" xml:space="preserve">
<style type="text/css">
	.st0{fill:#121213;}
</style>
<g id="Forma_1">
	<g>
		<path class="st0" d="M19.7,18.3c-0.4,1.3-0.9,2.5-1.3,3.8c-0.2,0.7,0.8,0.9,1.1,0.3c0.4-1.3,0.9-2.5,1.3-3.8
			C21,17.9,19.9,17.7,19.7,18.3z M16.9,25.6c-2.1,0-3.8,1.7-3.8,3.7c0,2,1.6,3.6,3.7,3.7c2.1,0.1,3.7-1.5,3.9-3.4c0-0.1,0-0.2,0-0.3
			c0-0.1,0-0.3-0.1-0.4C20.4,27.1,19,25.6,16.9,25.6z M15,29.3c0-2.4,3.8-2.4,3.9,0C18.7,31.7,15,31.7,15,29.3z M37,25.6
			c-2.1,0-3.8,1.7-3.8,3.7c0,2,1.6,3.6,3.7,3.7c2.1,0.1,3.7-1.5,3.9-3.4c0-0.1,0-0.2,0-0.3c0-0.1,0-0.3-0.1-0.4
			C40.5,27.1,39.1,25.6,37,25.6z M35.1,29.3c0-2.4,3.8-2.4,3.9,0C38.9,31.7,35.1,31.7,35.1,29.3z M53.6,14.9
			c-7.4-4.4-14.8-8.7-22.2-13.1c-1-0.6-2-1.3-3.1-1.6c-1.8-0.5-3.3,0.2-4.7,1.1c-4.1,2.4-8.2,4.8-12.3,7.2C7.6,10.6,4,12.7,0.4,14.9
			c-1,0.6-0.1,2.2,0.9,1.6C8.6,12.2,15.8,7.9,23,3.7c0.8-0.5,1.7-1.1,2.6-1.5c1.8-0.8,3.1,0.1,4.5,1c4.1,2.4,8.2,4.9,12.4,7.3
			c3.4,2,6.8,4,10.2,6C53.7,17,54.6,15.5,53.6,14.9z M49,38.2h-6.7c0.1-0.1,0.2-0.2,0.3-0.4c0.4-0.7,0.3-1.7,0.3-2.5
			c1.2-0.4,2.1-1.6,2.1-2.9v-6.4c0-1.4-0.9-2.5-2.2-2.9l-3.3-8.5c-0.6-1.5-2.3-2.6-3.9-2.6H18.5c-1.6,0-3.3,1.1-3.9,2.6l-3.3,8.5
			c-1.3,0.4-2.2,1.6-2.2,2.9v6.4c0,1.4,0.9,2.5,2.2,2.9c0,0.8-0.1,1.7,0.3,2.5c0.1,0.1,0.2,0.2,0.3,0.4H5.5c-1.2,0-1.2,1.8,0,1.8H49
			C50.2,40,50.2,38.2,49,38.2z M16.4,15.2c0.3-0.8,1.3-1.4,2.2-1.4h16.9c0.9,0,1.9,0.7,2.2,1.4l3,7.7H39l-2-5.6
			c-0.5-1.5-2.2-2.7-3.9-2.7H20.9c-1.6,0-3.3,1.2-3.9,2.7L15,23h-1.6L16.4,15.2z M37,23H17l1.8-5c0.3-0.8,1.3-1.4,2.1-1.4h12.3
			c0.8,0,1.8,0.7,2.1,1.4L37,23z M13.8,37.3c-0.9,0-0.8-1.1-0.7-1.8h1.4C14.6,36.2,14.7,37.3,13.8,37.3z M15.9,38.2
			c0.1-0.1,0.2-0.2,0.2-0.4c0.4-0.7,0.3-1.5,0.3-2.3h21.3c0,0.8-0.1,1.6,0.3,2.3c0.1,0.1,0.2,0.2,0.3,0.4H15.9z M40.3,37.3
			c-0.9,0-0.8-1.1-0.7-1.8H41C41,36.2,41.2,37.3,40.3,37.3z M12.3,33.7c-0.7,0-1.3-0.6-1.3-1.3v-6.4c0-0.7,0.6-1.3,1.3-1.3h29.5
			c0.7,0,1.3,0.6,1.3,1.3v6.4c0,0.7-0.6,1.3-1.3,1.3H12.3z"/>
	</g>
</g>
</svg>
