<?xml version="1.0" encoding="utf-8"?>
<!-- Generator: Adobe Illustrator 19.2.1, SVG Export Plug-In . SVG Version: 6.00 Build 0)  -->
<svg version="1.1" id="Forma_1_1_" opacity="0.8" xmlns="http://www.w3.org/2000/svg" xmlns:xlink="http://www.w3.org/1999/xlink"
	 x="0px" y="0px" viewBox="0 0 20 16" style="enable-background:new 0 0 20 16;" xml:space="preserve">
<style type="text/css">
	.st0{fill-rule:evenodd;clip-rule:evenodd;fill:#FFCC00;}
</style>
<g id="Forma_1">
	<g>
		<path class="st0" d="M4.1,13.5c0.2,0,0.4-0.2,0.4-0.5c0-0.3-0.2-0.5-0.4-0.5h0c-0.2,0-0.4,0.2-0.4,0.5C3.7,13.3,3.9,13.5,4.1,13.5
			z M15.9,12.6L15.9,12.6c-0.2,0-0.4,0.2-0.4,0.5c0,0.3,0.2,0.5,0.4,0.5c0.2,0,0.4-0.2,0.4-0.5C16.3,12.8,16.1,12.6,15.9,12.6z
			 M20,8.7c0-1.8-0.4-2.2-1.9-3.6c-0.2-0.2-0.4-0.3-0.6-0.5c-0.1-0.1-0.3-0.3-0.4-0.4c-0.2-0.2-0.5-0.5-0.7-0.7
			c-0.2-0.2-0.4-0.4-0.6-0.5C13.3,0.8,12.4,0,10,0H1.8C0.8,0,0,0.8,0,1.7v10.1c0,0.2,0.1,0.5,0.2,0.7c0.2,0.5,0.6,0.8,1.2,0.9
			C1.5,14.9,2.7,16,4.1,16c1.4,0,2.7-0.6,2.9-2h4c0.2,0,1-0.7,1-1c0-0.3-0.8,0-1,0H7c-0.2-1.4-1.5-3-2.9-3c-1.4,0-2.5,1-2.8,2.4
			c-0.2-0.1-0.3-0.2-0.4-0.4C0.9,12,1,11.1,1,11V1c0-0.4,0.5,0,1,0h8c2.1,0,2.8,0.6,5.2,2.7c0.2,0.2,0.4,0.3,0.6,0.5
			c0.2,0.2,0.5,0.4,0.7,0.7c0.1,0.1,0.3,0.3,0.5,0.4c0.2,0.2,0.4,0.4,0.6,0.5C18.4,6.7,18.8,7.5,19,8c0,0-9.8,0-11,0
			C7.7,8.5,7.4,7.3,7.2,6.6C7.1,6.3,6.8,6.2,6.6,6.3C6.4,6.4,6.3,6.7,6.4,6.9C6.5,7.3,6.8,9,8,9h11c0,0.4,0,0.4,0,1v1
			c0,0.3,0.1,0.4,0.1,0.8c0,0.3-0.2,0.5-0.5,0.6c-0.3-1.4-1.4-2.4-2.8-2.4c-1.6,0-2.8,1.3-2.8,3c0,1.6,1.3,3,2.8,3
			c1.4,0,2.6-1.1,2.8-2.6c0.8-0.2,1.3-0.9,1.3-1.6c0-0.4,0-0.7,0-1l0-0.4C20,9.9,20,9.1,20,8.7z M2.2,13c0-1.1,0.9-2,1.9-2
			c1.1,0,1.9,0.9,1.9,2c0,1.1-0.9,2-1.9,2C3.1,15.1,2.2,14.1,2.2,13L2.2,13z M17.8,13c0,1.1-0.9,2-1.9,2c-1.1,0-1.9-0.9-1.9-2
			c0-1.1,0.9-2,1.9-2C16.9,11,17.8,11.9,17.8,13C17.8,13,17.8,13,17.8,13z M3.8,8h-1C2.6,8,2.4,8.2,2.4,8.4c0,0.3,0.2,0.5,0.4,0.5h1
			c0.2,0,0.4-0.2,0.4-0.5C4.2,8.2,4,8,3.8,8z M3.8,6.3h-1c-0.2,0-0.4,0.2-0.4,0.5c0,0.3,0.2,0.5,0.4,0.5h1C4,7.2,4.2,7,4.2,6.7
			C4.2,6.5,4,6.3,3.8,6.3z"/>
	</g>
</g>
</svg>
