<?xml version="1.0" encoding="utf-8"?>
<!-- Generator: Adobe Illustrator 19.2.1, SVG Export Plug-In . SVG Version: 6.00 Build 0)  -->
<svg version="1.1" id="Forma_1_1_" xmlns="http://www.w3.org/2000/svg" xmlns:xlink="http://www.w3.org/1999/xlink" x="0px" y="0px"
	 viewBox="0 0 20 20" style="enable-background:new 0 0 20 20;" xml:space="preserve">
<style type="text/css">

</style>
<g id="Forma_1">
	<g>
		<path class="st0" d="M12,18.3c-0.2,0-0.3,0.1-0.5,0.1c-0.4,0.1-0.7,0.5-0.6,0.9c0,0.2,0.2,0.4,0.3,0.5c0.2,0.1,0.4,0.2,0.6,0.1
			c0.2,0,0.4-0.1,0.6-0.1c0.4-0.1,0.7-0.5,0.6-1C12.9,18.4,12.5,18.2,12,18.3z M18,7.4c0.1,0.2,0.2,0.3,0.3,0.4
			C18.5,8,18.7,8,19,7.9c0.4-0.1,0.7-0.6,0.5-1c-0.1-0.2-0.1-0.4-0.2-0.6c-0.2-0.4-0.6-0.6-1-0.5c-0.4,0.2-0.6,0.6-0.4,1.1
			C17.9,7.1,17.9,7.3,18,7.4z M14.6,17.1c-0.1,0.1-0.3,0.2-0.4,0.3c-0.4,0.2-0.5,0.7-0.3,1.1c0.1,0.1,0.1,0.2,0.2,0.3
			c0.2,0.2,0.6,0.2,0.9,0c0.2-0.1,0.3-0.2,0.5-0.3c0.4-0.2,0.5-0.7,0.2-1.1C15.5,17,15,16.9,14.6,17.1z M20,9.7
			c0-0.4-0.4-0.8-0.8-0.8c-0.4,0-0.8,0.4-0.8,0.8c0,0.2,0,0.3,0,0.5c0,0.3,0.1,0.5,0.3,0.7c0.1,0.1,0.3,0.1,0.4,0.1
			c0.4,0,0.8-0.3,0.8-0.8C20,10.1,20,9.9,20,9.7z M16.7,15.2c-0.1,0.1-0.2,0.3-0.3,0.4c-0.3,0.3-0.2,0.9,0.1,1.1c0,0,0,0,0.1,0
			c0.3,0.2,0.8,0.2,1.1-0.1c0.1-0.2,0.3-0.3,0.4-0.5c0.3-0.4,0.2-0.9-0.2-1.1C17.5,14.7,17,14.8,16.7,15.2z M19,12.1
			c-0.4-0.1-0.9,0.1-1,0.5c-0.1,0.2-0.1,0.3-0.2,0.5c-0.1,0.4,0,0.7,0.3,1c0.1,0,0.1,0.1,0.2,0.1c0.4,0.2,0.9-0.1,1-0.5
			c0.1-0.2,0.1-0.4,0.2-0.6C19.7,12.6,19.4,12.2,19,12.1z M8.5,18.4c-0.7-0.1-1.4-0.4-2.1-0.7c0,0,0,0,0,0c-0.2-0.1-0.3-0.2-0.5-0.2
			c0,0,0,0,0,0c-0.3-0.2-0.5-0.3-0.8-0.5c-3.8-2.7-4.7-8-2-11.8c0.6-0.8,1.3-1.5,2.1-2.1c0,0,0,0,0,0c2.8-1.9,6.5-2,9.4-0.1L14,4
			c-0.2,0.3-0.1,0.4,0.2,0.4L17,4.1c0.3,0,0.5-0.3,0.4-0.6l-0.7-2.7c-0.1-0.3-0.3-0.3-0.5-0.1l-0.6,0.9c-2.1-1.5-4.7-2-7.3-1.6
			C8,0.2,7.8,0.3,7.5,0.3c0,0,0,0,0,0c0,0,0,0,0,0C5.3,0.9,3.4,2.2,2,4c0,0,0,0,0,0c0,0.1-0.1,0.1-0.1,0.2C1.8,4.4,1.7,4.5,1.6,4.6
			c0,0,0,0,0,0C0.5,6.4-0.1,8.4,0,10.5c0,0,0,0,0,0c0,0.2,0,0.4,0,0.6c0,0,0,0,0,0c0,0.2,0.1,0.4,0.1,0.6c0.4,2.1,1.3,4,2.8,5.4
			c0,0,0,0,0,0c0,0,0,0,0,0c0.4,0.4,0.8,0.8,1.3,1.1c1.2,0.9,2.5,1.4,4,1.7c0.4,0.1,0.9-0.2,0.9-0.7C9.2,18.9,8.9,18.5,8.5,18.4z
			 M9.5,3.5c-0.4,0-0.7,0.3-0.7,0.7v6.5l5.9,3.1c0.1,0,0.2,0.1,0.3,0.1c0.2,0,0.5-0.1,0.6-0.4c0.2-0.3,0-0.7-0.3-0.9l-5.2-2.7V4.2
			C10.2,3.8,9.9,3.5,9.5,3.5z"/>
	</g>
</g>
</svg>
