<?xml version="1.0" encoding="utf-8"?>
<!-- Generator: Adobe Illustrator 19.2.1, SVG Export Plug-In . SVG Version: 6.00 Build 0)  -->
<svg version="1.1" id="Shape_1_1_" xmlns="http://www.w3.org/2000/svg" xmlns:xlink="http://www.w3.org/1999/xlink" x="0px" y="0px"
	 viewBox="0 0 15 20" style="enable-background:new 0 0 15 20;" xml:space="preserve">
<style type="text/css">
	
</style>
<g id="Shape_1">
	<g>
		<path class="st0" d="M15,19.3l-2.6-5.6c-0.1-0.1-0.1-0.2-0.3-0.2l-1.3-0.6L13,9.1c0,0,0,0,0,0c0.5-0.9,0.7-1.8,0.7-2.8
			c0-1.7-0.7-3.3-1.9-4.4C10.7,0.6,9.1,0,7.4,0C5.8,0,4.2,0.7,3.1,1.8C1.9,3,1.3,4.6,1.3,6.2c0,1,0.2,2,0.7,2.9c0,0,0,0,0,0l2.3,3.8
			l-1.3,0.6c-0.1,0-0.2,0.1-0.2,0.2L0,19.3C0,19.5,0,19.7,0.1,19.9C0.3,20,0.5,20,0.7,20L4,18.5L7.3,20C7.4,20,7.6,20,7.7,20
			l3.3-1.5l3.3,1.5c0.1,0,0.1,0,0.2,0c0.1,0,0.3-0.1,0.4-0.1C15,19.7,15,19.5,15,19.3z M2.8,8.6C2.5,7.8,2.3,7,2.3,6.2
			C2.3,3.4,4.6,1,7.4,1c1.4,0,2.7,0.5,3.7,1.5c1,1,1.6,2.3,1.6,3.7c0,0.8-0.2,1.6-0.6,2.4l-4.2,7.1c-0.1,0.2-0.3,0.2-0.4,0.2
			s-0.3,0-0.4-0.2L2.8,8.6z M11.2,17.5c-0.1-0.1-0.3-0.1-0.4,0L7.5,19l-3.3-1.5c-0.1-0.1-0.3-0.1-0.4,0l-2.3,1l2-4.2l1.3-0.6
			l1.5,2.5c0.3,0.5,0.7,0.7,1.3,0.7c0.5,0,1-0.3,1.3-0.7l1.5-2.5l1.3,0.6l2,4.2L11.2,17.5z M9.8,6.2C9.8,5,8.7,4,7.5,4
			S5.2,5,5.2,6.2c0,1.2,1,2.3,2.3,2.3S9.8,7.5,9.8,6.2z M6.2,6.2C6.2,5.5,6.8,5,7.5,5c0.7,0,1.3,0.6,1.3,1.3c0,0.7-0.6,1.3-1.3,1.3
			S6.2,6.9,6.2,6.2z"/>
	</g>
</g>
</svg>
