<?xml version="1.0" encoding="utf-8"?>
<!-- Generator: Adobe Illustrator 19.2.1, SVG Export Plug-In . SVG Version: 6.00 Build 0)  -->
<svg version="1.1" id="Layer_1" xmlns="http://www.w3.org/2000/svg" xmlns:xlink="http://www.w3.org/1999/xlink" x="0px" y="0px"
	 viewBox="0 0 136 83.1" style="enable-background:new 0 0 136 83.1;" xml:space="preserve">
<style type="text/css">
	.st0{fill:#FFFFFF;}
</style>
<g>
	<polygon class="st0" points="34.5,83.1 42.2,83.1 42.2,77.1 32.3,77.1 	"/>
	<polygon class="st0" points="80.2,82.3 80.2,83.1 87.8,83.1 80.2,71.4 	"/>
	<polygon class="st0" points="42,25.5 0,0 22,52.6 	"/>
	<polygon class="st0" points="97,59.5 114.8,83.1 136,83.1 	"/>
	<polygon class="st0" points="87.3,54.2 107.3,29.1 92.7,29.1 75.2,52.2 75.2,29.1 63.2,29.1 63.2,29.8 63.2,83.1 75.2,83.1 
		75.2,56.9 93.4,83.1 108.9,83.1 	"/>
	<path class="st0" d="M44.6,29.8L5.4,83.1H19l7.3-10h19.9v10h12v-0.9V29.8H44.6z M46.2,61.1H34.7l11.4-18.4v18.4H46.2z"/>
</g>
</svg>
