<?xml version="1.0" encoding="utf-8"?>
<!-- Generator: Adobe Illustrator 18.1.1, SVG Export Plug-In . SVG Version: 6.00 Build 0)  -->
<svg version="1.1" id="Layer_1" xmlns="http://www.w3.org/2000/svg" xmlns:xlink="http://www.w3.org/1999/xlink" x="0px" y="0px"
	 viewBox="0 0 70.5 60" enable-background="new 0 0 70.5 60" xml:space="preserve">
<g>
	<path fill="#C6C6C6" d="M20.2,44.3c3,0.7,6.1,1.1,9.4,1.1c16.3,0,29.6-9.3,29.6-20.8c0-11.5-13.3-20.8-29.6-20.8S0,13.1,0,24.6
		c0,6.9,4.8,13.1,12.3,16.9l-4.1,8.5L20.2,44.3z M3,24.6C3,14.7,14.9,6.8,29.6,6.8s26.6,8,26.6,17.8c0,9.8-11.9,17.8-26.6,17.8
		S3,34.4,3,24.6z"/>
	<path fill="#C6C6C6" d="M70.5,30.9c0-6.1-4.1-11.6-10.6-15.1c2,3,3.1,6.3,3.1,9.8c0,12.3-13.5,22.2-30.2,22.2c-1.5,0-3-0.1-4.5-0.2
		c4.2,1.7,9,2.6,14.1,2.6c2.8,0,5.5-0.3,8-0.8l12.3,5.8l-4.1-8.6C65.9,43.2,70.5,37.4,70.5,30.9z"/>
</g>
</svg>
