<?xml version="1.0" encoding="utf-8"?>
<!-- Generator: Adobe Illustrator 19.2.1, SVG Export Plug-In . SVG Version: 6.00 Build 0)  -->
<svg version="1.1" id="Shape_3_1_" xmlns="http://www.w3.org/2000/svg" xmlns:xlink="http://www.w3.org/1999/xlink" x="0px" y="0px"
	 viewBox="0 0 310 59" style="enable-background:new 0 0 310 59;" xml:space="preserve">
<style type="text/css">
	.st0{fill:#121213;}
</style>
<g id="Shape_3">
	<g>
		<path class="st0" d="M308.1,27.6c5.9-2.7-20.6,1.2-54.4-13.7C219.8-1,198.8,0,168.4,0c-30.4,0-48.6,12-65,21.1
			c-16.4,9.1-0.3,6.1-51.9,12C0,38.9,0,58.1,0,58.1S13.4,41,69.6,41S275.2,42.5,308.1,27.6z M104.5,29.7
			c5.6-4.6,28.1-22.1,48.5-23.8c23.6-2,54.9-2.8,73.4,4.8c18.4,7.6,21.1,16.7,21.1,16.7l-142.5,3.4C104.3,30.7,104,30,104.5,29.7z
			 M80.2,45.3C27.5,40.8,4.6,58.1,4.6,58.1s30.9-14.5,76.6-6.3c45.6,8.2,103.7,6,133.3,3.2c57.2-5.4,95.4-24.3,95.4-24.3
			C192.7,56.1,132.8,49.9,80.2,45.3z M111.3,29.1h9.7c1.2,0,2.3-0.8,2.5-2c0.2-1.5-0.9-2.8-2.4-2.8h-5.8c-1.2,0-2.4,0.5-3.2,1.4
			l-1.6,1.7C109.9,28,110.4,29.1,111.3,29.1z M305,35.7c-30.8,15.1-61.6,17.7-61.6,17.7C293,53.2,305,35.7,305,35.7z"/>
	</g>
</g>
</svg>
