<?xml version="1.0" encoding="utf-8"?>
<!-- Generator: Adobe Illustrator 19.2.1, SVG Export Plug-In . SVG Version: 6.00 Build 0)  -->
<svg version="1.1" id="Forma_1_1_" xmlns="http://www.w3.org/2000/svg" xmlns:xlink="http://www.w3.org/1999/xlink" x="0px" y="0px"
	 viewBox="0 0 16 16" style="enable-background:new 0 0 16 16;" xml:space="preserve">
<style type="text/css">
	.st0{fill-rule:evenodd;clip-rule:evenodd;}
</style>
<g id="Forma_1">
	<g>
		<path class="st0" d="M15.4,1.8l-1.1-1.1c-0.7-0.8-2.1-0.8-2.9,0L10,2c0,0,0,0.1,0,0.1l-9.1,9.1c0,0.1-0.1,0.2-0.1,0.3L0,15.5
			c-0.1,0.1,0,0.3,0.1,0.4c0.1,0,0.3,0.1,0.4,0.1l4-0.5c0.1,0,0.2,0,0.3-0.1L14,6.2c0-0.1,0-0.2,0.1-0.3l1.3-1.3
			C16.2,3.9,16.2,2.6,15.4,1.8z M4.3,14.3l-3.1,0.5l0.5-3.1l0.4-0.4L4.7,14L4.3,14.3z M5.4,13.2l-2.6-2.6l7.5-7.5l2.6,2.6L5.4,13.2z
			 M14.7,3.9l-1,1l-2.6-2.6l1-1c0.4-0.4,1-0.4,1.5,0l1.1,1.1C15.2,2.9,15.2,3.5,14.7,3.9z"/>
	</g>
</g>
</svg>
