<?xml version="1.0" encoding="utf-8"?>
<!-- Generator: Adobe Illustrator 19.2.1, SVG Export Plug-In . SVG Version: 6.00 Build 0)  -->
<svg version="1.1" id="Shape_1_1_" xmlns="http://www.w3.org/2000/svg" xmlns:xlink="http://www.w3.org/1999/xlink" x="0px" y="0px"
	 viewBox="0 0 18.5 18.8" style="enable-background:new 0 0 18.5 18.8;" xml:space="preserve">
<path d="M15.8,11.2c-0.4-0.4-0.9-0.7-1.4-0.7s-1,0.2-1.4,0.7l-1.3,1.3c-0.1-0.1-0.2-0.1-0.3-0.2c-0.2-0.1-0.3-0.1-0.4-0.2
	c-1.3-0.8-2.4-1.8-3.5-3.2c-0.6-0.6-1-1.2-1.3-1.7c0.3-0.3,0.7-0.6,1-1C7.3,6.1,7.5,6,7.6,5.8c0.9-0.9,0.9-2,0-2.9L6.4,1.8
	C6.3,1.6,6.2,1.5,6,1.4C5.8,1.1,5.5,0.8,5.2,0.6C4.8,0.2,4.3,0,3.8,0s-1,0.2-1.4,0.6l0,0L0.9,2C0.4,2.6,0.1,3.2,0,4
	c-0.1,1.2,0.3,2.4,0.5,3.1c0.7,1.8,1.7,3.6,3.2,5.4c1.9,2.2,4.1,4,6.6,5.2c1,0.5,2.3,1,3.7,1.1c0.1,0,0.2,0,0.3,0c1,0,1.8-0.4,2.4-1
	l0,0c0.2-0.3,0.5-0.5,0.7-0.8c0.2-0.2,0.4-0.4,0.5-0.5c0.4-0.4,0.6-0.9,0.6-1.5c0-0.5-0.2-1-0.7-1.4L15.8,11.2z"/>
<path d="M17.3,15.6c-0.2,0.2-0.3,0.3-0.5,0.5c-0.3,0.3-0.6,0.5-0.8,0.8c-0.4,0.5-0.9,0.7-1.6,0.7c-0.1,0-0.1,0-0.2,0
	c-1.3-0.1-2.4-0.6-3.3-1c-2.4-1.2-4.5-2.8-6.2-4.9c-1.4-1.7-2.4-3.3-3-5.1C1.2,5.7,1.1,4.9,1.2,4.1c0-0.5,0.2-0.9,0.6-1.3l1.4-1.4
	c0.2-0.2,0.4-0.3,0.6-0.3c0.3,0,0.5,0.2,0.6,0.3l0,0C4.7,1.6,5,1.9,5.2,2.2c0.1,0.1,0.3,0.3,0.4,0.4l1.2,1.2c0.4,0.4,0.4,0.9,0,1.3
	C6.6,5.2,6.5,5.3,6.4,5.4c-0.3,0.4-0.7,0.7-1.1,1l0,0C5,6.8,5,7.2,5.1,7.4l0,0c0.3,0.7,0.7,1.4,1.4,2.2l0,0c1.2,1.4,2.4,2.6,3.8,3.4
	c0.2,0.1,0.4,0.2,0.5,0.3c0.2,0.1,0.3,0.1,0.4,0.2c0,0,0,0,0.1,0c0.1,0.1,0.3,0.1,0.4,0.1c0.4,0,0.6-0.2,0.6-0.3l1.4-1.4
	c0.1-0.1,0.4-0.3,0.6-0.3c0.3,0,0.5,0.2,0.6,0.3l0,0l2.3,2.3C17.8,14.7,17.8,15.2,17.3,15.6z"/>
</svg>
