<?xml version="1.0" encoding="utf-8"?>
<!-- Generator: Adobe Illustrator 18.1.1, SVG Export Plug-In . SVG Version: 6.00 Build 0)  -->
<svg version="1.1" id="Layer_1" xmlns="http://www.w3.org/2000/svg" xmlns:xlink="http://www.w3.org/1999/xlink" x="0px" y="0px"
	 viewBox="0 0 312.3 131.3" enable-background="new 0 0 312.3 131.3" xml:space="preserve">
<g>
	<path fill="#FFCC00" d="M180,19.9h-0.6l1.9-2.9l2.5,1.2c0.2,0.1,0.4,0.1,0.6,0.1c0.6,0,1.1-0.3,1.4-0.9c0.4-0.7,0-1.6-0.7-2
		L152.5,0.1c-0.8-0.4-1.6,0-2,0.7c-0.4,0.7,0,1.6,0.7,2l3.1,1.4l-7.6,15.6H124v-6h-23v7H91v33h10v6h23v-7h4.7
		c-2.9,6.7-4.3,14.1-4.3,22.1c0,30.6,24.9,55.4,55.5,55.4c30.6,0,55.5-24.8,55.5-55.3C235.4,44.7,210.5,19.9,180,19.9z M156.6,6.5
		l21.5,10l-2.3,3.4h-25.7L156.6,6.5z M94,50.9v-27h7v27H94z M121,56.9h-17v-3v-33v-4h17v3l0,0v33l0,0V56.9z M179.9,127.4
		c-29,0-52.5-23.5-52.5-52.4c0-7.9,1.5-15.2,4.5-21.7c0.1-0.1,0.1-0.3,0.1-0.4h37.7c-8.6,3.8-14.7,12.5-14.7,22.6
		c0,13.6,11.1,24.7,24.7,24.7s24.7-11.1,24.7-24.7c0-13-10.1-23.7-22.9-24.6c-0.2-0.6-0.8-0.9-1.4-0.9h-56v-27h21.8
		c0.1,0.3,0.4,0.6,0.7,0.8c0.2,0.1,0.4,0.2,0.7,0.2c0.6,0,1.1-0.3,1.4-0.8l0.1-0.1h25.9c0.1,0.3,0.3,0.5,0.6,0.7
		c0.7,0.5,1.6,0.3,2.1-0.4l0.2-0.3h2.6c28.9,0,52.4,23.5,52.4,52.3C232.4,104,208.8,127.4,179.9,127.4z M187,75.4
		c0,3.8-2.8,6.9-6.5,7.4c-0.3-0.3-0.6-0.4-1-0.4c-0.4,0-0.7,0.2-1,0.4c-3.6-0.5-6.3-3.6-6.3-7.3c0-4.1,3.3-7.4,7.4-7.4
		S187,71.3,187,75.4z M175.9,65.7l-5.6-9.8c0,0,0,0-0.1-0.1c2.4-1.2,5-1.9,7.8-2.1v11.1c0,0.1,0,0.2,0,0.3
		C177.3,65.3,176.6,65.5,175.9,65.7z M167.6,57.4C167.6,57.4,167.6,57.4,167.6,57.4l5.7,9.8c-0.6,0.5-1.2,1.1-1.7,1.7l-9.7-5.6
		c0,0-0.1,0-0.1-0.1C163.3,60.9,165.3,58.9,167.6,57.4z M160.2,65.8c0,0,0.1,0.1,0.1,0.1l9.6,5.6c-0.2,0.5-0.3,0.9-0.5,1.4h-11.4
		C158.4,70.3,159.1,68,160.2,65.8z M158,75.9h11.2c0,1.2,0.3,2.3,0.7,3.4l-9.6,5.5c-0.1,0-0.2,0.1-0.2,0.2
		C158.8,82.2,158,79.1,158,75.9C158,75.9,158,75.9,158,75.9z M161.8,87.4l9.6-5.5c0.5,0.7,1.1,1.3,1.8,1.8l-5.5,9.6
		c0,0.1-0.1,0.2-0.1,0.3c-2.4-1.6-4.4-3.6-6-6C161.7,87.5,161.8,87.4,161.8,87.4z M170.3,94.7l5.5-9.6c0.7,0.3,1.4,0.5,2.2,0.6v10.1
		c0,0.5,0.3,1,0.7,1.2c-3.1-0.1-6-0.9-8.6-2.2C170.2,94.9,170.2,94.8,170.3,94.7z M181,95.9V85.8c0.9-0.1,1.8-0.4,2.6-0.7l5.6,9.6
		c0,0.1,0.1,0.1,0.1,0.1c-2.7,1.4-5.7,2.2-8.9,2.3C180.7,96.8,181,96.4,181,95.9z M191.8,93.4c0-0.1,0-0.1-0.1-0.2l-5.6-9.7
		c0.6-0.5,1.2-1.1,1.7-1.8l9.7,5.6c0,0,0.1,0,0.1,0C196.1,89.8,194.1,91.8,191.8,93.4z M199.2,84.8
		C199.1,84.8,199.1,84.8,199.2,84.8l-9.8-5.7c0.4-1,0.6-2.1,0.7-3.3h11c0.1,0,0.2,0,0.3,0C201.2,79.1,200.5,82.1,199.2,84.8z
		 M201,72.9h-11.3c-0.1-0.5-0.3-0.9-0.4-1.3l9.8-5.7c0,0,0,0,0,0c1.1,2.2,1.8,4.5,2.1,7C201.1,72.9,201.1,72.9,201,72.9z M187.8,69
		c-0.5-0.6-1.1-1.2-1.7-1.7l5.7-9.8c2.3,1.6,4.3,3.5,5.8,5.8L187.8,69z M183.5,65.8c-0.8-0.3-1.6-0.5-2.5-0.7c0-0.1,0-0.2,0-0.2
		V53.8c2.9,0.2,5.7,0.9,8.2,2.2L183.5,65.8z"/>
	<path fill="#FFCC00" d="M69.2,69.9H36.4C16.3,69.9,0,86.2,0,106.4v0c0,13.2,10.7,23.5,24.3,23.5H121v-27h-14.3
		C104.5,84,88.6,69.9,69.2,69.9z M118,126.9H24.3c-11.9,0-21.3-9-21.3-20.5c0-18.5,15-33.5,33.4-33.5h32.9
		c18.3,0,33.2,13.6,34.7,31.6l0.1,1.4h14V126.9z"/>
	<path fill="#FFCC00" d="M68.3,76.9H38.8c-0.4,0-0.8,0.2-1.1,0.3c-0.2,0-0.4,0.1-0.7,0.1C21.3,78.2,8.7,91.4,8.7,107.4
		c0,8.5,6.9,15.5,15.4,15.5H99v-14.7C99,91.2,85.3,76.9,68.3,76.9z M96,119.9H70l-3.3-4.5c-0.5-0.7-1.4-0.8-2.1-0.3
		c-0.7,0.5-0.8,1.5-0.3,2.1l2,2.7h-6.4L42.2,96.2c-0.5-0.7-1.4-0.8-2.1-0.3c-0.7,0.5-0.8,1.5-0.3,2.1L56,119.9H24.1
		c-6.8,0-12.4-5.6-12.4-12.4c0-11.2,6.8-20.8,16.5-24.9l5.4,7.2c0.3,0.4,0.7,0.6,1.2,0.6c0.3,0,0.6-0.1,0.9-0.3
		c0.7-0.5,0.8-1.4,0.3-2.1l-4.8-6.5c1.8-0.5,3.7-0.9,5.6-1L59,110.1c0.3,0.4,0.7,0.6,1.2,0.6c0.3,0,0.6-0.1,0.9-0.3
		c0.7-0.5,0.8-1.7,0.3-2.3L40.4,79.9h27.9c15.4,0,27.7,13,27.7,28.3V119.9z"/>
	<path fill="#FFCC00" d="M308.1,39.5l4.2-9l-9.7-4.6c1.8-0.7,3.3-2.1,4.1-3.8c1.8-3.8,0.1-8.4-3.7-10.1c-1-0.5-2.1-0.7-3.2-0.7
		c-2.9,0-5.7,1.7-6.9,4.4c-0.8,1.8-0.9,3.8-0.3,5.6l-9.5-4.4l-4.2,9l3.9,1.8l-5.6,11.8l-3.5-0.3c-0.8-0.1-1.5,0.5-1.6,1.4
		s0.5,1.5,1.4,1.6l2.4,0.2l-3.4,7.2l-3.5-0.3c-0.8-0.1-1.5,0.5-1.6,1.4c-0.1,0.8,0.5,1.5,1.4,1.6l2.4,0.2l-3.4,7.2l-3.5-0.3
		c-0.8-0.1-1.5,0.5-1.6,1.4c-0.1,0.8,0.5,1.5,1.4,1.6l2.4,0.2l-3.4,7.2l-3.5-0.3c-0.8-0.1-1.5,0.5-1.6,1.4c-0.1,0.8,0.5,1.5,1.4,1.6
		l2.4,0.2l-3.4,7.2l-3.5-0.3c-0.8-0.1-1.5,0.5-1.6,1.4c-0.1,0.8,0.5,1.5,1.4,1.6l2.4,0.2l-3.4,7.2l-3.5-0.3
		c-0.8-0.1-1.5,0.5-1.6,1.4c-0.1,0.8,0.5,1.5,1.4,1.6L252,93l-1.3,2.8l-3.9-1.8l-4.2,9l7.2,3.4c-3.6,1-6.6,3.4-8.2,6.9
		c-3,6.3-0.2,13.9,6.1,16.9c1.7,0.8,3.5,1.2,5.4,1.2c0,0,0,0,0,0c4.9,0,9.4-2.9,11.5-7.3c1.7-3.5,1.5-7.4,0-10.7l7.2,3.4l4.2-9
		l-3.9-1.8l5.1-10.8l3.5,0.3c0,0,0.1,0,0.1,0c0.8,0,1.4-0.6,1.5-1.4c0.1-0.8-0.5-1.5-1.4-1.6l-2.4-0.2L282,85l3.5,0.3
		c0,0,0.1,0,0.1,0c0.8,0,1.4-0.6,1.5-1.4c0.1-0.8-0.5-1.5-1.4-1.6l-2.4-0.2l3.4-7.2l3.5,0.3c0,0,0.1,0,0.1,0c0.8,0,1.4-0.6,1.5-1.4
		c0.1-0.8-0.5-1.5-1.4-1.6l-2.4-0.2l3.4-7.2L295,65c0,0,0.1,0,0.1,0c0.8,0,1.4-0.6,1.5-1.4c0.1-0.8-0.5-1.5-1.4-1.6l-2.4-0.2
		l3.4-7.2l3.5,0.3c0,0,0.1,0,0.1,0c0.8,0,1.4-0.6,1.5-1.4c0.1-0.8-0.5-1.5-1.4-1.6l-2.4-0.2l3.4-7.2l3.5,0.3c0,0,0.1,0,0.1,0
		c0.8,0,1.4-0.6,1.5-1.4c0.1-0.8-0.5-1.5-1.4-1.6l-2.4-0.2l1.8-3.8L308.1,39.5z M295.6,16.9c0.8-1.6,2.4-2.7,4.2-2.7
		c0.7,0,1.3,0.1,2,0.4c2.3,1.1,3.3,3.8,2.2,6.2c-0.8,1.6-2.4,2.7-4.2,2.7c-0.7,0-1.3-0.1-2-0.4c-1.1-0.5-2-1.5-2.4-2.6
		C295,19.3,295,18.1,295.6,16.9z M261.9,122.8c-1.6,3.4-5,5.6-8.8,5.6c0,0,0,0,0,0c-1.4,0-2.8-0.3-4.1-0.9
		c-4.8-2.3-6.9-8.1-4.7-12.9c1.6-3.4,5-5.6,8.8-5.6c1.4,0,2.8,0.3,4.1,0.9C262.1,112.1,264.2,117.9,261.9,122.8z M282.8,24.4
		l1.7-3.5L308.3,32l-1.7,3.5l-11.9-5.6l-10.7-5v0L282.8,24.4z M272,109.2l-1.7,3.5l-23.8-11.2l1.7-3.5l1.2,0.6l-0.1,0.2l21.4,10.1
		l0.1-0.2L272,109.2z M269.4,104.7l-16-7.5l1.8-3.8l18.8,1.5L269.4,104.7z M275.4,91.9l-18.8-1.5l3.4-7.2l18.8,1.5L275.4,91.9z
		 M280.1,81.8l-18.8-1.5l3.4-7.2l18.8,1.5L280.1,81.8z M284.9,71.7l-18.8-1.5l3.4-7.2l18.8,1.5L284.9,71.7z M289.7,61.5L270.9,60
		l3.4-7.2l18.8,1.5L289.7,61.5z M294.4,51.4l-18.8-1.5l3.4-7.2l18.8,1.5L294.4,51.4z M301.5,36.4l-2.3,4.8l-18.8-1.5l5.1-10.8l8,3.8
		L301.5,36.4z"/>
	<path fill="#FFCC00" d="M255.9,112.7c-0.9-0.4-1.8-0.6-2.8-0.6c-2.5,0-4.9,1.5-5.9,3.8c-1.5,3.3-0.1,7.2,3.1,8.7
		c0.9,0.4,1.8,0.6,2.8,0.6c2.5,0,4.9-1.5,5.9-3.8C260.6,118.2,259.2,114.2,255.9,112.7z M256.3,120.2c-0.6,1.2-1.8,2-3.2,2
		c-0.5,0-1-0.1-1.5-0.3c-1.8-0.8-2.5-3-1.7-4.7c0.6-1.2,1.8-2,3.2-2c0.5,0,1,0.1,1.5,0.3C256.4,116.3,257.1,118.4,256.3,120.2z"/>
</g>
</svg>
