<?xml version="1.0" encoding="utf-8"?>
<!-- Generator: Adobe Illustrator 18.1.1, SVG Export Plug-In . SVG Version: 6.00 Build 0)  -->
<svg version="1.1" id="Layer_1" xmlns="http://www.w3.org/2000/svg" xmlns:xlink="http://www.w3.org/1999/xlink" x="0px" y="0px"
	 viewBox="0 0 70.5 60" enable-background="new 0 0 70.5 60" xml:space="preserve">
<g>
	<path fill="#C6C6C6" d="M35.5,0C19,0,5.5,13.5,5.5,30s13.5,30,30,30s30-13.5,30-30S52,0,35.5,0z M8.5,30c0-14.9,12.1-27,27-27
		s27,12.1,27,27c0,6.2-2.1,11.9-5.6,16.4c-1.2-4.5-6-9.1-10.9-11c-2.9,2.4-6.5,3.8-10.6,3.8c-3.9,0-7.5-1.4-10.3-3.6
		c-4.8,2.1-9.4,6.9-10.5,11.5C10.8,42.5,8.5,36.5,8.5,30z"/>
	<circle fill="#C6C6C6" cx="35.5" cy="22.8" r="13.3"/>
</g>
</svg>
