<?xml version="1.0" encoding="utf-8"?>
<!-- Generator: Adobe Illustrator 19.2.1, SVG Export Plug-In . SVG Version: 6.00 Build 0)  -->
<svg version="1.1" id="Shape_1_1_" opacity="0.8" xmlns="http://www.w3.org/2000/svg" xmlns:xlink="http://www.w3.org/1999/xlink"
	 x="0px" y="0px" viewBox="0 0 40 40" style="enable-background:new 0 0 40 40;" xml:space="preserve">
<g id="Shape_1">
	<g>
		<path d="M8,19.3c0.7,0,1.3-0.6,1.3-1.3c0-0.7-0.6-1.3-1.3-1.3c-0.7,0-1.3,0.6-1.3,1.3C6.7,18.7,7.3,19.3,8,19.3z M32,16.7
			c-0.7,0-1.3,0.6-1.3,1.3c0,0.7,0.6,1.3,1.3,1.3c0.7,0,1.3-0.6,1.3-1.3C33.3,17.3,32.7,16.7,32,16.7z M20,11.3h2.7V12
			c0,0.4,0.3,0.7,0.7,0.7c0.4,0,0.7-0.3,0.7-0.7v-1.3c0-0.4-0.3-0.7-0.7-0.7H20c-0.4,0-0.7,0.3-0.7,0.7C19.3,11.1,19.6,11.3,20,11.3
			z M39.3,21.3h-4c0.7-0.7,1.2-1.6,1.3-2.7h0.7c1.5,0,2.7-1.2,2.6-2.7v-3c0-0.1,0.1-0.2,0.1-0.3c0-0.1,0-0.2-0.1-0.3v-2
			c0-0.9-0.7-1.7-1.7-1.7h-2.7c-1.9,0-3.8-1.1-4.9-2.7l-2.3-3.7C27.6,0.9,26.1,0,24.5,0H10.9C9.3,0,7.8,0.9,6.9,2.2L3.6,7.6
			C3.2,8.3,2.5,8.7,1.7,8.7c-0.5,0-0.9,0.2-1.2,0.5C0.2,9.5,0,9.9,0,10.3v6c0,1.3,1.1,2.3,2.3,2.3h1c0.1,1,0.6,2,1.3,2.7h-4
			C0.3,21.3,0,21.6,0,22v2.7c0,0.3,0.2,0.5,0.4,0.6c0,0,0.1,0,0.1,0l16.4,4L4.5,32C4.2,32.1,4,32.3,4,32.7c0,0.3,0.2,0.6,0.5,0.7
			l11.9,2.6L0.5,38.7C0.2,38.7,0,39.1,0,39.4C0,39.7,0.3,40,0.7,40h38.7c0.3,0,0.7-0.3,0.6-0.6c0.1-0.3-0.2-0.7-0.5-0.7l-15.9-2.7
			l11.9-2.6c0.3-0.1,0.5-0.3,0.5-0.7c0-0.3-0.2-0.6-0.5-0.7l-12.5-2.7l16.3-3.9h0.1c0.4,0,0.6-0.2,0.7-0.6c0-0.1,0-0.2,0-0.3V22
			C40,21.6,39.7,21.3,39.3,21.3z M32,21.3c-1.9,0-3.3-1.5-3.3-3.3c0-1.9,1.5-3.3,3.3-3.3c1.9,0,3.3,1.5,3.3,3.3
			C35.3,19.9,33.9,21.3,32,21.3z M28.7,21.3H11.3c0.7-0.7,1.2-1.6,1.3-2.7h14.8C27.5,19.7,28,20.6,28.7,21.3z M27.8,4l1.7,2.7h-8.8
			V4H27.8z M3.4,17.3h-1c-0.5,0-1-0.5-1-1v-3h2c0.4,0,0.7-0.3,0.7-0.7C4,12.3,3.7,12,3.3,12h-2v-1.7c0-0.1,0-0.1,0.1-0.2
			C1.5,10.1,1.6,10,1.7,10c1.2,0,2.4-0.7,3-1.7l3.3-5.4c0.6-1,1.7-1.6,2.8-1.6h13.6c1,0,2,0.5,2.5,1.3H10.5c-0.7,0-1.2,0.5-1.2,1.2
			v2.9C9.3,7.5,9.9,8,10.5,8h20c1.3,1.3,3.1,2.1,5,2.1h2.7c0.2,0,0.3,0.1,0.3,0.3V12h-1.9c-0.4,0-0.7,0.3-0.7,0.7
			c0,0.4,0.3,0.7,0.7,0.7h1.9V16c0,0.7-0.6,1.3-1.3,1.3h-0.6c-0.3-2.3-2.2-4-4.6-4c0,0,0,0,0,0c0,0,0,0,0,0c-2.3,0-4.3,1.7-4.6,4
			H12.6c-0.3-2.1-2-3.8-4.2-4c0,0,0,0,0,0c-0.1,0-0.1,0-0.2,0c-0.1,0-0.1,0-0.2,0c-0.1,0-0.2,0-0.2,0c-0.1,0-0.1,0-0.2,0
			c0,0,0,0,0,0C5.4,13.5,3.7,15.2,3.4,17.3z M19.3,4v2.7h-8.7V4H19.3z M4.7,18c0-1.9,1.5-3.3,3.3-3.3c1.9,0,3.3,1.5,3.3,3.3
			c0,1.9-1.5,3.3-3.3,3.3C6.1,21.3,4.7,19.9,4.7,18z M31.5,38.7H8.5l11.5-2L31.5,38.7z M32.2,32.7L20,35.3L7.8,32.7L20,30L32.2,32.7
			z M20,28.7L6.1,25.3h27.6L20,28.7z M38.7,24H1.3v-1.3h37.3V24z"/>
	</g>
</g>
</svg>
