<?xml version="1.0" encoding="utf-8"?>
<!-- Generator: Adobe Illustrator 19.2.1, SVG Export Plug-In . SVG Version: 6.00 Build 0)  -->
<svg version="1.1" id="Shape_1_1_" opacity="0.8" xmlns="http://www.w3.org/2000/svg" xmlns:xlink="http://www.w3.org/1999/xlink"
	 x="0px" y="0px" viewBox="0 0 42 40" style="enable-background:new 0 0 42 40;" xml:space="preserve">
<g id="Shape_1">
	<g>
		<path d="M39.3,35l2.5-3.9c0.1-0.2,0.2-0.5,0-0.7c-0.1-0.2-0.4-0.4-0.6-0.4h-4.2v-2.8c1.4-2.7,2.1-5.6,2.1-8.7C39.2,8.3,31,0,21,0
			C11,0,2.8,8.3,2.8,18.6c0,3,0.7,6,2.1,8.7V30H0.7c-0.3,0-0.5,0.1-0.6,0.4c-0.1,0.2-0.1,0.5,0,0.7L2.7,35l-2.5,3.9
			c-0.1,0.2-0.2,0.5,0,0.7C0.2,39.9,0.4,40,0.7,40H7c0.4,0,0.7-0.3,0.7-0.7v-2.9h26.6v2.9c0,0.4,0.3,0.7,0.7,0.7h6.3
			c0.3,0,0.5-0.1,0.6-0.4c0.1-0.2,0.1-0.5,0-0.7L39.3,35z M4.2,18.6C4.2,9.1,11.7,1.4,21,1.4c9.3,0,16.8,7.7,16.8,17.1
			c0,2.7-0.6,5.4-1.9,7.9h-3.2c1.5-2.3,2.3-5.1,2.3-7.9c0-7.9-6.3-14.3-14-14.3c-7.7,0-14,6.4-14,14.3c0,2.8,0.8,5.5,2.3,7.9H6.1
			C4.8,24,4.2,21.3,4.2,18.6z M30.9,26.4H11c-1.7-2.2-2.6-5-2.6-7.9C8.4,11.5,14,5.7,21,5.7c6.9,0,12.6,5.8,12.6,12.9
			C33.6,21.4,32.6,24.2,30.9,26.4z M6.3,38.6H2l2.1-3.2c0.2-0.2,0.2-0.6,0-0.8L2,31.4h2.9v4.3c0,0.4,0.3,0.7,0.7,0.7h0.7V38.6z
			 M35.7,35H6.3v-4.3c0,0,0,0,0,0v-2.9h29.4V35z M35.7,38.6v-2.1h0.7c0.4,0,0.7-0.3,0.7-0.7v-4.3H40l-2.1,3.2
			c-0.2,0.2-0.2,0.6,0,0.8l2.1,3.2H35.7z M12.6,30.7h2.8c0.4,0,0.7-0.3,0.7-0.7c0-0.4-0.3-0.7-0.7-0.7h-2.8c-0.4,0-0.7,0.3-0.7,0.7
			C11.9,30.4,12.2,30.7,12.6,30.7z M18.2,30.7h4.2c0.4,0,0.7-0.3,0.7-0.7c0-0.4-0.3-0.7-0.7-0.7h-4.2c-0.4,0-0.7,0.3-0.7,0.7
			C17.5,30.4,17.8,30.7,18.2,30.7z M12.6,33.6h6.3c0.4,0,0.7-0.3,0.7-0.7s-0.3-0.7-0.7-0.7h-6.3c-0.4,0-0.7,0.3-0.7,0.7
			S12.2,33.6,12.6,33.6z M29.4,32.1H28c-0.4,0-0.7,0.3-0.7,0.7s0.3,0.7,0.7,0.7h1.4c0.4,0,0.7-0.3,0.7-0.7S29.8,32.1,29.4,32.1z
			 M21,32.9c0,0.4,0.3,0.7,0.7,0.7h3.5c0.4,0,0.7-0.3,0.7-0.7s-0.3-0.7-0.7-0.7h-3.5C21.3,32.1,21,32.5,21,32.9z M25.9,30.7h3.5
			c0.4,0,0.7-0.3,0.7-0.7c0-0.4-0.3-0.7-0.7-0.7h-3.5c-0.4,0-0.7,0.3-0.7,0.7C25.2,30.4,25.5,30.7,25.9,30.7z"/>
	</g>
</g>
</svg>
