<?xml version="1.0" encoding="utf-8"?>
<!-- Generator: Adobe Illustrator 19.2.1, SVG Export Plug-In . SVG Version: 6.00 Build 0)  -->
<svg version="1.1" id="Shape_1_1_" xmlns="http://www.w3.org/2000/svg" xmlns:xlink="http://www.w3.org/1999/xlink" x="0px" y="0px"
	 viewBox="0 0 512 328" style="enable-background:new 0 0 512 328;" xml:space="preserve">
<g id="Shape_1">
	<g>
		<path d="M89.5,248.1c-13.1,0-23.8,10.7-23.8,23.8c0,13.1,10.7,23.8,23.8,23.8s23.8-10.7,23.8-23.8
			C113.3,258.7,102.6,248.1,89.5,248.1z M89.5,280.4c-4.7,0-8.6-3.8-8.6-8.6c0-4.7,3.8-8.6,8.6-8.6s8.6,3.8,8.6,8.6
			C98.1,276.6,94.2,280.4,89.5,280.4z M391.2,248.1c-13.1,0-23.8,10.7-23.8,23.8c0,13.1,10.7,23.8,23.8,23.8
			c13.1,0,23.8-10.7,23.8-23.8C415,258.7,404.3,248.1,391.2,248.1z M391.2,280.4c-4.7,0-8.6-3.8-8.6-8.6c0-4.7,3.8-8.6,8.6-8.6
			c4.7,0,8.6,3.8,8.6,8.6C399.8,276.6,396,280.4,391.2,280.4z M270.5,155.4h90.6V64.7h-90.6V155.4z M285.7,79.9h60.2v60.3h-60.2
			V79.9z M151.9,64.7v90.7h90.6l0-90.7H151.9z M227.4,140.2h-60.2V79.9h60.2V140.2z M33.4,155.4H124V64.7H33.4V155.4z M48.6,79.9
			h60.2v60.3H48.6V79.9z M472.6,79.9h15.6l9,27.2l14.4-4.8l-12.5-37.6h-32.6l-1.8-4.5c-5.3-16.7-20.5-27.9-38.1-27.9h-44V15.2h24.7
			V0H41v15.2h24.7v17.1H39.9c-22,0-39.9,17.9-39.9,40v212.5h34.9C40.8,309.6,63,328,89.5,328c26.5,0,48.7-18.4,54.6-43.1h192.6
			c5.9,24.7,28.1,43.1,54.6,43.1c26.5,0,48.7-18.4,54.6-43.1H512V178.7L472.6,79.9z M450.5,79.9h5.7l37,92.6h-61.7l-38-28.6V79.9
			L450.5,79.9L450.5,79.9z M80.9,15.2h286.5v17.1H80.9V15.2z M15.2,72.3c0-13.6,11.1-24.7,24.7-24.7h386.7
			c10.8,0,20.2,6.9,23.5,17.1h-71.9v86.9l27.9,20.9H15.2V72.3z M130.1,276.4c-2.3,20.4-19.6,36.4-40.6,36.4
			c-21,0-38.4-15.9-40.6-36.4c-0.2-1.5-0.3-3.1-0.3-4.5c0-22.6,18.3-40.9,40.9-40.9s40.9,18.4,40.9,40.9
			C130.4,273.3,130.3,274.8,130.1,276.4z M431.9,276.4c-2.3,20.4-19.6,36.4-40.6,36.4s-38.4-16-40.6-36.4c-0.2-1.5-0.3-3.1-0.3-4.5
			c0-22.6,18.3-40.9,40.9-40.9c22.5,0,40.9,18.4,40.9,40.9C432.1,273.3,432,274.8,431.9,276.4z M496.8,237.3h-27.9v-17.1h27.9V237.3
			z M496.8,204.9h-43.1v47.6h43.1v17.1h-49.5c0-0.1,0-0.2,0-0.3c0-0.5-0.1-0.9-0.1-1.4c0-0.5-0.1-1-0.1-1.4c0-0.5-0.1-0.9-0.2-1.4
			c-0.1-0.5-0.1-0.9-0.2-1.4c-0.1-0.4-0.1-0.9-0.2-1.3c-0.1-0.5-0.2-0.9-0.2-1.4c-0.1-0.4-0.2-0.9-0.3-1.3c-0.1-0.5-0.2-0.9-0.3-1.4
			c-0.1-0.4-0.2-0.9-0.3-1.3c-0.1-0.5-0.2-0.9-0.4-1.3c-0.1-0.4-0.3-0.8-0.4-1.3c-0.1-0.4-0.3-0.9-0.4-1.3c-0.1-0.4-0.3-0.8-0.5-1.2
			c-0.2-0.4-0.3-0.9-0.5-1.3c-0.2-0.4-0.3-0.8-0.5-1.2c-0.2-0.4-0.4-0.8-0.6-1.3c-0.2-0.4-0.4-0.8-0.6-1.2c-0.2-0.4-0.4-0.8-0.6-1.2
			c-0.2-0.4-0.4-0.8-0.6-1.2c-0.2-0.4-0.4-0.8-0.7-1.2c-0.2-0.4-0.4-0.7-0.7-1.1c-0.2-0.4-0.5-0.8-0.7-1.2c-0.2-0.4-0.5-0.7-0.7-1.1
			c-0.3-0.4-0.5-0.7-0.8-1.1c-0.3-0.4-0.5-0.7-0.8-1c-0.3-0.4-0.6-0.7-0.8-1.1c-0.3-0.3-0.5-0.7-0.8-1c-0.3-0.3-0.6-0.7-0.9-1
			c-0.3-0.3-0.6-0.6-0.9-1c-0.3-0.3-0.6-0.7-0.9-1c-0.3-0.3-0.6-0.6-0.9-0.9c-0.3-0.3-0.7-0.6-1-0.9c-0.3-0.3-0.6-0.6-1-0.9
			c-0.3-0.3-0.7-0.6-1-0.9c-0.3-0.3-0.7-0.6-1-0.8c-0.4-0.3-0.7-0.6-1.1-0.8c-0.3-0.3-0.7-0.5-1-0.8c-0.4-0.3-0.7-0.5-1.1-0.8
			c-0.4-0.2-0.7-0.5-1.1-0.7c-0.4-0.3-0.8-0.5-1.2-0.7c-0.4-0.2-0.7-0.5-1.1-0.7c-0.4-0.2-0.8-0.5-1.2-0.7c-0.4-0.2-0.7-0.4-1.1-0.6
			c-0.4-0.2-0.8-0.4-1.3-0.6c-0.4-0.2-0.8-0.4-1.1-0.6c-0.4-0.2-0.9-0.4-1.3-0.6c-0.4-0.2-0.8-0.4-1.2-0.5c-0.4-0.2-0.9-0.4-1.3-0.5
			c-0.4-0.2-0.8-0.3-1.2-0.5c-0.5-0.2-0.9-0.3-1.4-0.5c-0.4-0.1-0.8-0.3-1.2-0.4c-0.5-0.1-0.9-0.3-1.4-0.4c-0.4-0.1-0.8-0.2-1.2-0.3
			c-0.5-0.1-1-0.2-1.5-0.3c-0.4-0.1-0.8-0.2-1.2-0.3c-0.5-0.1-1-0.2-1.5-0.3c-0.4-0.1-0.8-0.1-1.2-0.2c-0.5-0.1-1.1-0.1-1.6-0.2
			c-0.4,0-0.7-0.1-1.1-0.1c-0.6-0.1-1.2-0.1-1.9-0.1c-0.3,0-0.6-0.1-0.9-0.1c-0.9,0-1.9-0.1-2.8-0.1c-1,0-1.9,0-2.8,0.1
			c-0.3,0-0.6,0-0.9,0.1c-0.6,0-1.3,0.1-1.9,0.1c-0.4,0-0.7,0.1-1.1,0.1c-0.6,0.1-1.1,0.1-1.7,0.2c-0.4,0.1-0.8,0.1-1.2,0.2
			c-0.5,0.1-1,0.2-1.6,0.3c-0.4,0.1-0.8,0.2-1.2,0.3c-0.5,0.1-1,0.2-1.5,0.3c-0.4,0.1-0.8,0.2-1.2,0.3c-0.5,0.1-1,0.3-1.4,0.4
			c-0.4,0.1-0.8,0.3-1.2,0.4c-0.5,0.2-0.9,0.3-1.4,0.5c-0.4,0.1-0.8,0.3-1.2,0.5c-0.5,0.2-0.9,0.3-1.4,0.5c-0.4,0.2-0.8,0.3-1.2,0.5
			c-0.4,0.2-0.9,0.4-1.3,0.6c-0.4,0.2-0.8,0.4-1.1,0.6c-0.4,0.2-0.9,0.4-1.3,0.7c-0.4,0.2-0.7,0.4-1.1,0.6c-0.4,0.2-0.8,0.5-1.2,0.7
			c-0.4,0.2-0.7,0.4-1.1,0.7c-0.4,0.3-0.8,0.5-1.2,0.8c-0.4,0.2-0.7,0.5-1,0.7c-0.4,0.3-0.8,0.5-1.1,0.8c-0.3,0.3-0.7,0.5-1,0.8
			c-0.4,0.3-0.7,0.6-1.1,0.9c-0.3,0.3-0.7,0.5-1,0.8c-0.4,0.3-0.7,0.6-1.1,0.9c-0.3,0.3-0.6,0.6-0.9,0.9c-0.3,0.3-0.7,0.6-1,1
			c-0.3,0.3-0.6,0.6-0.9,0.9c-0.3,0.3-0.6,0.7-1,1c-0.3,0.3-0.6,0.6-0.9,0.9c-0.3,0.3-0.6,0.7-0.9,1c-0.3,0.3-0.5,0.7-0.8,1
			c-0.3,0.4-0.6,0.7-0.9,1.1c-0.3,0.3-0.5,0.7-0.8,1c-0.3,0.4-0.5,0.7-0.8,1.1c-0.2,0.4-0.5,0.7-0.7,1.1c-0.3,0.4-0.5,0.8-0.7,1.2
			c-0.2,0.4-0.5,0.7-0.7,1.1c-0.2,0.4-0.5,0.8-0.7,1.2c-0.2,0.4-0.4,0.8-0.6,1.1c-0.2,0.4-0.4,0.8-0.6,1.2c-0.2,0.4-0.4,0.8-0.6,1.2
			c-0.2,0.4-0.4,0.8-0.6,1.3c-0.2,0.4-0.4,0.8-0.5,1.2c-0.2,0.4-0.3,0.9-0.5,1.3c-0.2,0.4-0.3,0.8-0.5,1.2c-0.2,0.4-0.3,0.9-0.4,1.3
			c-0.1,0.4-0.3,0.8-0.4,1.3c-0.1,0.4-0.3,0.9-0.4,1.3c-0.1,0.4-0.2,0.9-0.3,1.3c-0.1,0.5-0.2,0.9-0.3,1.4c-0.1,0.4-0.2,0.9-0.3,1.3
			c-0.1,0.5-0.2,0.9-0.2,1.4c-0.1,0.4-0.2,0.9-0.2,1.3c-0.1,0.5-0.1,0.9-0.2,1.4c-0.1,0.5-0.1,0.9-0.2,1.4c0,0.5-0.1,1-0.1,1.4
			c0,0.5-0.1,0.9-0.1,1.4c0,0.1,0,0.2,0,0.3H145.6c0-0.1,0-0.2,0-0.3c0-0.4-0.1-0.9-0.1-1.3c0-0.5-0.1-1-0.1-1.5
			c0-0.4-0.1-0.9-0.1-1.3c-0.1-0.5-0.1-1-0.2-1.5c-0.1-0.4-0.1-0.9-0.2-1.3c-0.1-0.5-0.2-1-0.3-1.4c-0.1-0.4-0.2-0.9-0.3-1.3
			c-0.1-0.5-0.2-0.9-0.3-1.4c-0.1-0.4-0.2-0.8-0.3-1.3c-0.1-0.5-0.3-0.9-0.4-1.4c-0.1-0.4-0.3-0.8-0.4-1.2c-0.1-0.5-0.3-0.9-0.5-1.4
			c-0.1-0.4-0.3-0.8-0.5-1.2c-0.2-0.4-0.3-0.9-0.5-1.3c-0.2-0.4-0.3-0.8-0.5-1.2c-0.2-0.4-0.4-0.9-0.6-1.3c-0.2-0.4-0.4-0.8-0.6-1.2
			c-0.2-0.4-0.4-0.8-0.6-1.3c-0.2-0.4-0.4-0.8-0.6-1.1c-0.2-0.4-0.5-0.8-0.7-1.2c-0.2-0.4-0.4-0.7-0.7-1.1c-0.2-0.4-0.5-0.8-0.8-1.2
			c-0.2-0.4-0.5-0.7-0.7-1.1c-0.3-0.4-0.5-0.8-0.8-1.1c-0.3-0.3-0.5-0.7-0.8-1c-0.3-0.4-0.6-0.7-0.9-1.1c-0.3-0.3-0.5-0.7-0.8-1
			c-0.3-0.4-0.6-0.7-0.9-1.1c-0.3-0.3-0.6-0.6-0.9-0.9c-0.3-0.3-0.6-0.7-1-1c-0.3-0.3-0.6-0.6-0.9-0.9c-0.3-0.3-0.7-0.6-1-1
			c-0.3-0.3-0.6-0.6-0.9-0.9c-0.3-0.3-0.7-0.6-1.1-0.9c-0.3-0.3-0.6-0.5-1-0.8c-0.4-0.3-0.7-0.6-1.1-0.9c-0.3-0.3-0.7-0.5-1-0.8
			c-0.4-0.3-0.8-0.5-1.1-0.8c-0.3-0.2-0.7-0.5-1-0.7c-0.4-0.3-0.8-0.5-1.2-0.8c-0.4-0.2-0.7-0.5-1.1-0.7c-0.4-0.2-0.8-0.5-1.2-0.7
			c-0.4-0.2-0.7-0.4-1.1-0.6c-0.4-0.2-0.8-0.4-1.3-0.7c-0.4-0.2-0.7-0.4-1.1-0.6c-0.4-0.2-0.9-0.4-1.3-0.6c-0.4-0.2-0.8-0.3-1.2-0.5
			c-0.4-0.2-0.9-0.4-1.3-0.5c-0.4-0.2-0.8-0.3-1.2-0.5c-0.5-0.2-0.9-0.3-1.4-0.5c-0.4-0.1-0.8-0.3-1.2-0.4c-0.5-0.1-1-0.3-1.4-0.4
			c-0.4-0.1-0.8-0.2-1.2-0.3c-0.5-0.1-1-0.2-1.5-0.3c-0.4-0.1-0.8-0.2-1.2-0.3c-0.5-0.1-1-0.2-1.5-0.3c-0.4-0.1-0.8-0.1-1.2-0.2
			c-0.5-0.1-1.1-0.1-1.7-0.2c-0.4,0-0.7-0.1-1.1-0.1c-0.6-0.1-1.2-0.1-1.9-0.1c-0.3,0-0.6-0.1-0.9-0.1c-0.9,0-1.9-0.1-2.8-0.1
			c-1,0-1.9,0-2.8,0.1c-0.3,0-0.6,0-0.9,0.1c-0.6,0-1.2,0.1-1.9,0.1c-0.4,0-0.7,0.1-1.1,0.1c-0.6,0.1-1.1,0.1-1.7,0.2
			c-0.4,0.1-0.8,0.1-1.2,0.2c-0.5,0.1-1,0.2-1.6,0.3c-0.4,0.1-0.8,0.2-1.2,0.3c-0.5,0.1-1,0.2-1.5,0.3c-0.4,0.1-0.8,0.2-1.2,0.3
			c-0.5,0.1-1,0.3-1.4,0.4c-0.4,0.1-0.8,0.3-1.2,0.4c-0.5,0.2-0.9,0.3-1.4,0.5c-0.4,0.1-0.8,0.3-1.2,0.5c-0.5,0.2-0.9,0.3-1.3,0.5
			c-0.4,0.2-0.8,0.3-1.2,0.5c-0.4,0.2-0.9,0.4-1.3,0.6c-0.4,0.2-0.8,0.4-1.1,0.6c-0.4,0.2-0.9,0.4-1.3,0.7c-0.4,0.2-0.7,0.4-1.1,0.6
			c-0.4,0.2-0.8,0.5-1.2,0.7c-0.4,0.2-0.7,0.4-1.1,0.7c-0.4,0.3-0.8,0.5-1.2,0.8c-0.4,0.2-0.7,0.5-1,0.7c-0.4,0.3-0.8,0.5-1.1,0.8
			c-0.3,0.3-0.7,0.5-1,0.8c-0.4,0.3-0.7,0.6-1.1,0.9c-0.3,0.3-0.7,0.5-1,0.8c-0.4,0.3-0.7,0.6-1.1,0.9c-0.3,0.3-0.6,0.6-0.9,0.9
			c-0.3,0.3-0.7,0.6-1,1c-0.3,0.3-0.6,0.6-0.9,0.9c-0.3,0.3-0.6,0.7-1,1c-0.3,0.3-0.6,0.6-0.8,0.9c-0.3,0.3-0.6,0.7-0.9,1.1
			c-0.3,0.3-0.5,0.7-0.8,1c-0.3,0.4-0.6,0.7-0.9,1.1c-0.3,0.3-0.5,0.7-0.8,1c-0.3,0.4-0.5,0.8-0.8,1.1c-0.2,0.3-0.5,0.7-0.7,1.1
			c-0.3,0.4-0.5,0.8-0.8,1.2c-0.2,0.4-0.4,0.7-0.7,1.1c-0.2,0.4-0.5,0.8-0.7,1.2c-0.2,0.4-0.4,0.7-0.6,1.1c-0.2,0.4-0.4,0.8-0.6,1.3
			c-0.2,0.4-0.4,0.8-0.6,1.2c-0.2,0.4-0.4,0.9-0.6,1.3c-0.2,0.4-0.3,0.8-0.5,1.2c-0.2,0.4-0.4,0.9-0.5,1.3c-0.2,0.4-0.3,0.8-0.5,1.2
			c-0.2,0.4-0.3,0.9-0.5,1.4c-0.1,0.4-0.3,0.8-0.4,1.2c-0.1,0.5-0.3,0.9-0.4,1.4c-0.1,0.4-0.2,0.8-0.3,1.3c-0.1,0.5-0.2,0.9-0.3,1.4
			c-0.1,0.4-0.2,0.8-0.3,1.3c-0.1,0.5-0.2,1-0.3,1.4c-0.1,0.4-0.1,0.9-0.2,1.3c-0.1,0.5-0.1,1-0.2,1.5c-0.1,0.4-0.1,0.9-0.1,1.3
			c0,0.5-0.1,1-0.1,1.5c0,0.4-0.1,0.9-0.1,1.3c0,0.1,0,0.2,0,0.3H15.2v-49.5H41v-15.2H15.2v-17.1h481.6V204.9z"/>
	</g>
</g>
</svg>
