<?xml version="1.0" encoding="utf-8"?>
<!-- Generator: Adobe Illustrator 19.2.1, SVG Export Plug-In . SVG Version: 6.00 Build 0)  -->
<svg version="1.1" id="Shape_1_1_" opacity="0.8" xmlns="http://www.w3.org/2000/svg" xmlns:xlink="http://www.w3.org/1999/xlink"
	 x="0px" y="0px" viewBox="0 0 32 35" style="enable-background:new 0 0 32 35;" xml:space="preserve">
<g id="Shape_1">
	<g>
		<path d="M8.9,12.2H5.3c-1,0-1.8,0.8-1.8,1.7v10.5c0,1,0.8,1.7,1.8,1.7h3.6c1,0,1.8-0.8,1.8-1.7V14C10.7,13,9.9,12.2,8.9,12.2z
			 M8.9,24.5H5.3V14h3.6V24.5z M24.9,11.1c-0.3-0.4-0.8-0.6-1.3-0.6c-0.5,0-1,0.2-1.3,0.6c-0.2,0.2-0.5,0.6-0.9,1V8.7
			c0-0.5-0.2-0.9-0.5-1.2l-3-3V1.7C17.8,0.8,17,0,16,0h-5.3c-1,0-1.8,0.8-1.8,1.8v2.7l-8.2,6.5C0.2,11.2,0,11.7,0,12.2v21
			c0,1,0.8,1.8,1.8,1.8h17.8c1,0,1.8-0.8,1.8-1.8v-2.1c0.7,0.2,1.4,0.3,2.2,0.3c4.7,0,8.4-3.7,8.4-8.3C32,19.1,26.1,12.4,24.9,11.1z
			 M10.7,1.7H16v1.7h-5.3V1.7z M19.6,33.2H1.8v-21l8.9-7H16l3.6,3.5v5.5c-2.1,2.7-4.4,6.3-4.4,8.9c0,3.2,1.8,5.9,4.4,7.3V33.2z
			 M23.6,29.7c-3.7,0-6.7-2.9-6.7-6.6c0-3.6,6.7-10.9,6.7-10.9s6.7,7.3,6.7,10.9C30.2,26.8,27.2,29.7,23.6,29.7z"/>
	</g>
</g>
</svg>
